<?xml version="1.0" encoding="UTF-8"?>
<svg width="48px" height="48px" viewBox="0 0 48 48" version="1.1" xmlns="http://www.w3.org/2000/svg" xmlns:xlink="http://www.w3.org/1999/xlink">
    <title>d-logo</title>
    <g id="d-logo" stroke="none" stroke-width="1" fill="none" fill-rule="evenodd">
        <rect id="Rectangle" fill="#6AB0DA" x="0" y="0" width="48" height="48" rx="4"></rect>
        <g id="D" transform="translate(23.988000, 23.584000) rotate(-10.000000) translate(-23.988000, -23.584000) translate(11.988000, 9.584000)" fill="#FFFFFF" fill-rule="nonzero">
            <path d="M17.173913,14.021978 L17.173913,14.021978 C17.173913,16.8351648 16.4855072,18.959707 15.1086957,20.3956044 C13.7318841,21.8315018 11.8985507,22.5494505 9.60869565,22.5494505 C9.11594203,22.5494505 8.5942029,22.5274725 8.04347826,22.4835165 C7.49275362,22.4395604 7,22.3736264 6.56521739,22.2857143 L6.56521739,5.62637363 C7.05797101,5.56776557 7.54347826,5.51648352 8.02173913,5.47252747 C8.5,5.42857143 9,5.40659341 9.52173913,5.40659341 C11.0289855,5.40659341 12.3550725,5.72161172 13.5,6.35164835 C14.6449275,6.98168498 15.5434783,7.92673993 16.1956522,9.18681319 C16.8478261,10.4468864 17.173913,12.0586081 17.173913,14.021978 Z M24,13.8901099 L24,13.8901099 C24,10.7545788 23.3768116,8.16117216 22.1304348,6.10989011 C20.884058,4.05860806 19.1521739,2.52747253 16.9347826,1.51648352 C14.7173913,0.505494505 12.115942,0 9.13043478,0 C8.02898551,0 6.8115942,0.0586080586 5.47826087,0.175824176 C4.14492754,0.293040293 2.89855072,0.542124542 1.73913043,0.923076923 C1.2173913,1.12820513 0.797101449,1.38461538 0.47826087,1.69230769 C0.15942029,2 0,2.44688645 0,3.03296703 L0,24.043956 C0,25.4505495 0.753623188,26.4322344 2.26086957,26.989011 C3.39130435,27.3992674 4.65217391,27.6703297 6.04347826,27.8021978 C7.43478261,27.9340659 8.60869565,28 9.56521739,28 C12.4637681,28 14.9927536,27.4798535 17.1521739,26.4395604 C19.3115942,25.3992674 20.9927536,23.8388278 22.1956522,21.7582418 C23.3985507,19.6776557 24,17.0549451 24,13.8901099 Z" id="Shape"></path>
        </g>
    </g>
</svg>